<?xml version="1.0" standalone="no"?>
<!DOCTYPE svg PUBLIC "-//W3C//DTD SVG 20010904//EN"
 "http://www.w3.org/TR/2001/REC-SVG-20010904/DTD/svg10.dtd">
<svg version="1.0" xmlns="http://www.w3.org/2000/svg"
 width="1024.000000pt" height="1024.000000pt" viewBox="0 0 1024.000000 1024.000000"
 preserveAspectRatio="xMidYMid meet">

<g transform="translate(0.000000,1024.000000) scale(0.100000,-0.100000)"
fill="#000000" stroke="none">
<path d="M6080 7600 l0 -80 -160 0 -160 0 0 -80 0 -80 -160 0 -160 0 0 -80 0
-80 -160 0 -160 0 0 -80 0 -80 -160 0 -160 0 0 -80 0 -80 -160 0 -160 0 0 -80
0 -80 -160 0 -160 0 0 -80 0 -80 -160 0 -160 0 0 -80 0 -80 -160 0 -160 0 0
-80 0 -80 -160 0 -160 0 0 -80 0 -80 -160 0 -160 0 0 -80 0 -80 -160 0 -160 0
0 -80 0 -80 -160 0 -160 0 0 -80 0 -80 -160 0 -160 0 0 -80 0 -80 -160 0 -160
0 0 -80 0 -80 -80 0 -80 0 0 -880 0 -880 80 0 80 0 0 -80 0 -80 80 0 80 0 0
-80 0 -80 160 0 160 0 0 80 0 80 160 0 160 0 0 80 0 80 80 0 80 0 0 -80 0 -80
160 0 160 0 0 -80 0 -80 160 0 160 0 0 -80 0 -80 80 0 80 0 0 -320 0 -320 80
0 80 0 0 -80 0 -80 320 0 320 0 0 80 0 80 160 0 160 0 0 400 0 400 160 0 160
0 0 80 0 80 160 0 160 0 0 80 0 80 160 0 160 0 0 80 0 80 160 0 160 0 0 80 0
80 160 0 160 0 0 80 0 80 160 0 160 0 0 80 0 80 160 0 160 0 0 80 0 80 160 0
160 0 0 80 0 80 160 0 160 0 0 80 0 80 160 0 160 0 0 80 0 80 80 0 80 0 0 -80
0 -80 160 0 160 0 0 -80 0 -80 240 0 240 0 0 80 0 80 80 0 80 0 0 960 0 960
-160 0 -160 0 0 80 0 80 -160 0 -160 0 0 80 0 80 -160 0 -160 0 0 80 0 80
-160 0 -160 0 0 80 0 80 -160 0 -160 0 0 80 0 80 -160 0 -160 0 0 80 0 80
-160 0 -160 0 0 80 0 80 -240 0 -240 0 0 -80z m480 -160 l0 -80 160 0 160 0 0
-80 0 -80 160 0 160 0 0 -80 0 -80 160 0 160 0 0 -80 0 -80 160 0 160 0 0 -80
0 -80 160 0 160 0 0 -80 0 -80 160 0 160 0 0 -80 0 -80 -80 0 -80 0 0 -80 0
-80 -160 0 -160 0 0 -80 0 -80 -160 0 -160 0 0 -80 0 -80 -160 0 -160 0 0 80
0 80 -160 0 -160 0 0 80 0 80 -160 0 -160 0 0 80 0 80 -240 0 -240 0 0 80 0
80 -160 0 -160 0 0 80 0 80 -160 0 -160 0 0 80 0 80 -160 0 -160 0 0 80 0 80
80 0 80 0 0 80 0 80 160 0 160 0 0 80 0 80 160 0 160 0 0 80 0 80 240 0 240 0
0 -80z m-1920 -960 l0 -80 160 0 160 0 0 -80 0 -80 160 0 160 0 0 -80 0 -80
160 0 160 0 0 -80 0 -80 160 0 160 0 0 -80 0 -80 160 0 160 0 0 -80 0 -80 240
0 240 0 0 -80 0 -80 -160 0 -160 0 0 -80 0 -80 -160 0 -160 0 0 -80 0 -80 -80
0 -80 0 0 80 0 80 -160 0 -160 0 0 80 0 80 -160 0 -160 0 0 80 0 80 -160 0
-160 0 0 80 0 80 -160 0 -160 0 0 80 0 80 -160 0 -160 0 0 80 0 80 -160 0
-160 0 0 80 0 80 -80 0 -80 0 0 80 0 80 160 0 160 0 0 80 0 80 240 0 240 0 0
-80z m-1440 -640 l0 -80 160 0 160 0 0 -80 0 -80 160 0 160 0 0 -80 0 -80 160
0 160 0 0 -80 0 -80 160 0 160 0 0 -80 0 -80 160 0 160 0 0 -80 0 -80 160 0
160 0 0 -160 0 -160 -160 0 -160 0 0 -80 0 -80 -80 0 -80 0 0 80 0 80 -240 0
-240 0 0 80 0 80 -160 0 -160 0 0 80 0 80 -160 0 -160 0 0 80 0 80 -160 0
-160 0 0 80 0 80 -240 0 -240 0 0 80 0 80 -160 0 -160 0 0 80 0 80 80 0 80 0
0 80 0 80 160 0 160 0 0 80 0 80 160 0 160 0 0 -80z m4960 -240 l0 -160 -80 0
-80 0 0 -80 0 -80 -160 0 -160 0 0 -80 0 -80 -80 0 -80 0 0 160 0 160 80 0 80
0 0 80 0 80 160 0 160 0 0 80 0 80 80 0 80 0 0 -160z m-1440 -800 l0 -160
-160 0 -160 0 0 -80 0 -80 -160 0 -160 0 0 160 0 160 160 0 160 0 0 80 0 80
160 0 160 0 0 -160z m-1440 -640 l0 -160 -80 0 -80 0 0 -80 0 -80 -160 0 -160
0 0 160 0 160 160 0 160 0 0 80 0 80 80 0 80 0 0 -160z m-1280 -1360 l0 -400
-80 0 -80 0 0 400 0 400 80 0 80 0 0 -400z"/>
</g>
</svg>
